<svg width="40pt" height="40pt" viewBox="0 0 24 24" fill="none" xmlns="http://www.w3.org/2000/svg">
<rect x="0.373047" y="0.304199" width="23.1261" height="23.1261" rx="11.563" fill="#27374D"/>
<g clip-path="url(#clip0_7758_854)">
<path d="M13.1719 11.9528L14.6748 13.8903L15.1406 14.7096L14.918 15.2106L14.5557 15.8287H12.3867L11.0889 13.7516C10.9048 13.4577 10.4703 13.4774 10.3135 13.7867L9.28027 15.8287H3.5498L10.165 8.07581L13.1719 11.9528Z" fill="#EBDFCE"/>
<path d="M10.1656 8.07581L6.73841 15.8262L5.88605 15.8262L3.54995 15.8262L10.1656 8.07581Z" fill="#F8F0E5"/>
<g filter="url(#filter0_f_7758_854)">
<path d="M9.30371 13.5166C9.31069 13.5158 9.31738 13.5128 9.32231 13.5076C9.32724 13.5025 9.33001 13.4957 9.33001 13.4888C9.33001 13.4818 9.32724 13.475 9.32231 13.4699C9.31738 13.4648 9.31069 13.4617 9.30371 13.4609C9.30371 13.4609 9.30371 13.4609 9.30371 13.4609C9.27811 13.458 9.25581 13.4552 9.2291 13.4525C8.77933 13.4033 8.32998 13.3783 7.87865 13.3773C7.8707 13.3773 7.86103 13.3773 7.85225 13.3773C7.8426 13.3773 7.83082 13.3773 7.81949 13.3773C7.81901 13.3773 7.81864 13.3779 7.81837 13.3791C7.81829 13.3794 7.81793 13.3797 7.81789 13.38C7.81787 13.3801 7.81786 13.3802 7.81785 13.3803C7.81785 13.3803 7.81785 13.3804 7.81785 13.3804C7.81785 13.3804 7.81785 13.3804 7.81785 13.3804C7.81785 13.3804 7.81785 13.3804 7.81785 13.3804C7.81785 13.3804 7.81785 13.3804 7.81785 13.3804C7.81785 13.3804 7.81785 13.3804 7.81785 13.3804C7.81785 13.3804 7.81785 13.3804 7.81785 13.3804C7.81785 13.3804 7.81785 13.3804 7.81785 13.3804C7.81785 13.3804 7.81785 13.3804 7.81785 13.3804C7.81785 13.3804 7.81785 13.3804 7.81785 13.3804C7.81785 13.3804 7.81785 13.3804 7.81785 13.3804C7.81785 13.3804 7.81785 13.3804 7.81785 13.3804C7.81785 13.3804 7.81785 13.3804 7.81785 13.3804C7.81785 13.4526 7.81785 13.1396 7.81785 13.5971C7.81785 13.5971 7.81785 13.5971 7.81785 13.5971C7.81785 13.5971 7.81785 13.5971 7.81785 13.5971C7.81785 13.5971 7.81785 13.5971 7.81785 13.5971C7.81785 13.5971 7.81785 13.5971 7.81785 13.5971C7.81785 13.5971 7.81785 13.5971 7.81785 13.5971C7.81785 13.5971 7.81785 13.5971 7.81785 13.5971C7.81785 13.5971 7.81785 13.5971 7.81785 13.5971C7.81785 13.597 7.81786 13.597 7.81786 13.5969C7.81788 13.5967 7.81793 13.5965 7.81802 13.5963C7.81826 13.5954 7.81942 13.5944 7.8202 13.5933C7.82096 13.5886 7.8219 13.5816 7.82303 13.5724C7.82529 13.5538 7.82831 13.5259 7.83212 13.4888C7.82831 13.4516 7.82529 13.4238 7.82303 13.4052C7.8219 13.3959 7.82096 13.3889 7.8202 13.3843C7.81942 13.3831 7.81826 13.3821 7.81802 13.3812C7.81793 13.381 7.81788 13.3808 7.81786 13.3806C7.81786 13.3806 7.81785 13.3805 7.81785 13.3805C7.81785 13.3805 7.81785 13.3804 7.81785 13.3804C7.81785 13.3804 7.81785 13.3804 7.81785 13.3804C7.81785 13.3804 7.81785 13.3804 7.81785 13.3804C7.81785 13.3804 7.81785 13.3804 7.81785 13.3804C7.81785 13.3804 7.81785 13.3804 7.81785 13.3804C7.81785 13.3804 7.81785 13.3804 7.81785 13.3804C7.81785 13.3804 7.81785 13.3804 7.81785 13.3804C7.81785 13.8379 7.81785 13.5249 7.81785 13.5971C7.81785 13.5971 7.81785 13.5971 7.81785 13.5971C7.81785 13.5971 7.81785 13.5971 7.81785 13.5971C7.81785 13.5971 7.81785 13.5971 7.81785 13.5971C7.81785 13.5971 7.81785 13.5971 7.81785 13.5971C7.81785 13.5971 7.81785 13.5971 7.81785 13.5971C7.81785 13.5971 7.81785 13.5971 7.81785 13.5971C7.81785 13.5971 7.81785 13.5971 7.81785 13.5971C7.81785 13.5971 7.81785 13.5971 7.81785 13.5971C7.81785 13.5971 7.81785 13.5971 7.81785 13.5971C7.81785 13.5971 7.81785 13.5971 7.81785 13.5971C7.81785 13.5971 7.81785 13.5971 7.81785 13.5971C7.81785 13.5972 7.81785 13.5972 7.81785 13.5972C7.81786 13.5973 7.81787 13.5974 7.81789 13.5975C7.81793 13.5979 7.81829 13.5982 7.81837 13.5985C7.81864 13.5996 7.81901 13.6002 7.81949 13.6002C7.83082 13.6002 7.8426 13.6002 7.85225 13.6002C7.86103 13.6002 7.8707 13.6002 7.87865 13.6002C8.32998 13.5993 8.77933 13.5742 9.2291 13.525C9.25581 13.5223 9.27811 13.5195 9.30371 13.5166Z" fill="#D9CCBA"/>
</g>
<g filter="url(#filter1_f_7758_854)">
<path d="M10.1855 11.5247C10.1925 11.5239 10.1992 11.5208 10.2041 11.5157C10.2091 11.5105 10.2119 11.5038 10.2119 11.4968C10.2119 11.4898 10.2091 11.4831 10.2041 11.478C10.1992 11.4728 10.1925 11.4698 10.1855 11.469C10.1855 11.469 10.1855 11.469 10.1855 11.469C10.1599 11.4661 10.1376 11.4633 10.1109 11.4605C9.66117 11.4114 9.21182 11.3863 8.76048 11.3854C8.75254 11.3854 8.74287 11.3854 8.73409 11.3854C8.72444 11.3854 8.71266 11.3854 8.70132 11.3854C8.70085 11.3854 8.70047 11.386 8.7002 11.3871C8.70013 11.3874 8.69977 11.3877 8.69973 11.3881C8.69971 11.3882 8.6997 11.3883 8.69969 11.3884C8.69969 11.3884 8.69969 11.3884 8.69969 11.3884C8.69969 11.3885 8.69969 11.3885 8.69969 11.3885C8.69969 11.3885 8.69969 11.3885 8.69969 11.3885C8.69969 11.3885 8.69969 11.3885 8.69969 11.3885C8.69969 11.3885 8.69969 11.3885 8.69969 11.3885C8.69969 11.3885 8.69969 11.3885 8.69969 11.3885C8.69969 11.3885 8.69969 11.3885 8.69969 11.3885C8.69969 11.3885 8.69969 11.3885 8.69969 11.3885C8.69969 11.3885 8.69969 11.3885 8.69969 11.3885C8.69969 11.3885 8.69969 11.3885 8.69969 11.3885C8.69969 11.3885 8.69969 11.3885 8.69969 11.3885C8.69969 11.3885 8.69969 11.3885 8.69969 11.3885C8.69969 11.4607 8.69969 11.1477 8.69969 11.6052C8.69969 11.6052 8.69969 11.6052 8.69969 11.6052C8.69969 11.6052 8.69969 11.6052 8.69969 11.6052C8.69969 11.6052 8.69969 11.6052 8.69969 11.6052C8.69969 11.6052 8.69969 11.6052 8.69969 11.6052C8.69969 11.6052 8.69969 11.6052 8.69969 11.6052C8.69969 11.6052 8.69969 11.6052 8.69969 11.6052C8.69969 11.6052 8.69969 11.6051 8.69969 11.6051C8.69969 11.6051 8.69969 11.605 8.6997 11.605C8.69972 11.6048 8.69977 11.6046 8.69985 11.6044C8.70009 11.6035 8.70125 11.6025 8.70204 11.6013C8.70279 11.5967 8.70373 11.5897 8.70487 11.5804C8.70713 11.5618 8.71015 11.534 8.71396 11.4968C8.71015 11.4597 8.70713 11.4318 8.70487 11.4132C8.70373 11.404 8.70279 11.397 8.70204 11.3923C8.70125 11.3912 8.70009 11.3902 8.69985 11.3893C8.69977 11.3891 8.69972 11.3889 8.6997 11.3887C8.69969 11.3886 8.69969 11.3886 8.69969 11.3885C8.69969 11.3885 8.69969 11.3885 8.69969 11.3885C8.69969 11.3885 8.69969 11.3885 8.69969 11.3885C8.69969 11.3885 8.69969 11.3885 8.69969 11.3885C8.69969 11.3885 8.69969 11.3885 8.69969 11.3885C8.69969 11.3885 8.69969 11.3885 8.69969 11.3885C8.69969 11.3885 8.69969 11.3885 8.69969 11.3885C8.69969 11.3885 8.69969 11.3885 8.69969 11.3885C8.69969 11.846 8.69969 11.5329 8.69969 11.6052C8.69969 11.6052 8.69969 11.6052 8.69969 11.6052C8.69969 11.6052 8.69969 11.6052 8.69969 11.6052C8.69969 11.6052 8.69969 11.6052 8.69969 11.6052C8.69969 11.6052 8.69969 11.6052 8.69969 11.6052C8.69969 11.6052 8.69969 11.6052 8.69969 11.6052C8.69969 11.6052 8.69969 11.6052 8.69969 11.6052C8.69969 11.6052 8.69969 11.6052 8.69969 11.6052C8.69969 11.6052 8.69969 11.6052 8.69969 11.6052C8.69969 11.6052 8.69969 11.6052 8.69969 11.6052C8.69969 11.6052 8.69969 11.6052 8.69969 11.6052C8.69969 11.6052 8.69969 11.6052 8.69969 11.6052C8.69969 11.6052 8.69969 11.6053 8.69969 11.6053C8.6997 11.6054 8.69971 11.6055 8.69973 11.6056C8.69977 11.6059 8.70013 11.6062 8.7002 11.6065C8.70047 11.6077 8.70085 11.6083 8.70132 11.6083C8.71266 11.6083 8.72444 11.6083 8.73409 11.6083C8.74287 11.6083 8.75254 11.6083 8.76048 11.6082C9.21182 11.6073 9.66117 11.5823 10.1109 11.5331C10.1376 11.5304 10.1599 11.5276 10.1855 11.5247Z" fill="#D9CCBA"/>
</g>
<g filter="url(#filter2_f_7758_854)">
<path d="M8.93945 10.5287C8.946 10.5271 8.95227 10.5239 8.9569 10.5188C8.96153 10.5138 8.96413 10.5074 8.96413 10.5009C8.96413 10.4943 8.96153 10.4879 8.9569 10.4829C8.95227 10.4778 8.946 10.4746 8.93945 10.473C8.93945 10.473 8.93945 10.473 8.93945 10.473C8.92734 10.4701 8.91679 10.4673 8.90415 10.4646C8.69134 10.4154 8.47873 10.3904 8.26518 10.3894C8.26142 10.3894 8.25685 10.3894 8.25269 10.3894C8.24813 10.3894 8.24255 10.3894 8.23719 10.3894C8.23697 10.3894 8.23679 10.39 8.23666 10.3911C8.23662 10.3914 8.23646 10.3918 8.23644 10.3921C8.23643 10.3922 8.23642 10.3923 8.23642 10.3924C8.23642 10.3924 8.23642 10.3925 8.23642 10.3925C8.23642 10.3925 8.23642 10.3925 8.23642 10.3925C8.23642 10.3925 8.23642 10.3925 8.23642 10.3925C8.23642 10.3925 8.23642 10.3925 8.23642 10.3925C8.23642 10.3925 8.23642 10.3925 8.23642 10.3925C8.23642 10.3925 8.23642 10.3925 8.23642 10.3925C8.23642 10.3925 8.23642 10.3925 8.23642 10.3925C8.23642 10.3925 8.23642 10.3925 8.23642 10.3925C8.23642 10.3925 8.23642 10.3925 8.23642 10.3925C8.23642 10.3925 8.23642 10.3925 8.23642 10.3925C8.23642 10.4647 8.23642 10.1517 8.23642 10.6092C8.23642 10.6092 8.23642 10.6092 8.23642 10.6092C8.23642 10.6092 8.23642 10.6092 8.23642 10.6092C8.23642 10.6092 8.23642 10.6092 8.23642 10.6092C8.23642 10.6092 8.23642 10.6092 8.23642 10.6092C8.23642 10.6092 8.23642 10.6092 8.23642 10.6092C8.23642 10.6092 8.23642 10.6092 8.23642 10.6092C8.23642 10.6092 8.23642 10.6092 8.23642 10.6092C8.23642 10.6092 8.23642 10.6092 8.23642 10.6092C8.23642 10.6092 8.23642 10.6092 8.23642 10.6092C8.23642 10.6091 8.23642 10.6091 8.23642 10.609C8.23643 10.6088 8.23646 10.6086 8.23649 10.6084C8.23661 10.6075 8.23716 10.6065 8.23753 10.6053C8.23789 10.6007 8.23833 10.5937 8.23887 10.5844C8.23994 10.5659 8.24137 10.538 8.24317 10.5009C8.24137 10.4637 8.23994 10.4358 8.23887 10.4173C8.23833 10.408 8.23789 10.401 8.23753 10.3964C8.23716 10.3952 8.23661 10.3942 8.23649 10.3933C8.23646 10.3931 8.23643 10.3929 8.23642 10.3927C8.23642 10.3926 8.23642 10.3926 8.23642 10.3925C8.23642 10.3925 8.23642 10.3925 8.23642 10.3925C8.23642 10.3925 8.23642 10.3925 8.23642 10.3925C8.23642 10.3925 8.23642 10.3925 8.23642 10.3925C8.23642 10.3925 8.23642 10.3925 8.23642 10.3925C8.23642 10.3925 8.23642 10.3925 8.23642 10.3925C8.23642 10.3925 8.23642 10.3925 8.23642 10.3925C8.23642 10.3925 8.23642 10.3925 8.23642 10.3925C8.23642 10.3925 8.23642 10.3925 8.23642 10.3925C8.23642 10.3925 8.23642 10.3925 8.23642 10.3925C8.23642 10.85 8.23642 10.537 8.23642 10.6092C8.23642 10.6092 8.23642 10.6092 8.23642 10.6092C8.23642 10.6092 8.23642 10.6092 8.23642 10.6092C8.23642 10.6092 8.23642 10.6092 8.23642 10.6092C8.23642 10.6092 8.23642 10.6092 8.23642 10.6092C8.23642 10.6092 8.23642 10.6092 8.23642 10.6092C8.23642 10.6092 8.23642 10.6092 8.23642 10.6092C8.23642 10.6092 8.23642 10.6092 8.23642 10.6092C8.23642 10.6092 8.23642 10.6092 8.23642 10.6092C8.23642 10.6092 8.23642 10.6092 8.23642 10.6092C8.23642 10.6093 8.23642 10.6093 8.23642 10.6093C8.23642 10.6094 8.23643 10.6095 8.23644 10.6096C8.23646 10.6099 8.23662 10.6103 8.23666 10.6106C8.23679 10.6117 8.23697 10.6123 8.23719 10.6123C8.24255 10.6123 8.24813 10.6123 8.25269 10.6123C8.25685 10.6123 8.26142 10.6123 8.26518 10.6123C8.47873 10.6113 8.69134 10.5863 8.90415 10.5371C8.91679 10.5344 8.92734 10.5316 8.93945 10.5287Z" fill="#D9CCBA"/>
</g>
<g filter="url(#filter3_f_7758_854)">
<path d="M5.01416 14.2226C5.00718 14.2234 5.00049 14.2265 4.99556 14.2316C4.99063 14.2368 4.98786 14.2435 4.98786 14.2505C4.98786 14.2575 4.99063 14.2642 4.99556 14.2693C5.00049 14.2745 5.00718 14.2775 5.01416 14.2784C5.01416 14.2784 5.01416 14.2784 5.01416 14.2784C5.03977 14.2812 5.06206 14.284 5.08877 14.2868C5.53854 14.3359 5.98789 14.361 6.43922 14.3619C6.44717 14.3619 6.45684 14.3619 6.46562 14.3619C6.47527 14.3619 6.48705 14.3619 6.49838 14.3619C6.49886 14.3619 6.49924 14.3614 6.49951 14.3602C6.49958 14.3599 6.49994 14.3596 6.49998 14.3592C6.5 14.3591 6.50001 14.359 6.50002 14.3589C6.50002 14.3589 6.50002 14.3589 6.50002 14.3589C6.50002 14.3589 6.50002 14.3589 6.50002 14.3589C6.50002 14.3589 6.50002 14.3589 6.50002 14.3589C6.50002 14.3589 6.50002 14.3589 6.50002 14.3589C6.50002 14.3589 6.50002 14.3589 6.50002 14.3589C6.50002 14.3589 6.50002 14.3589 6.50002 14.3589C6.50002 14.3589 6.50002 14.3589 6.50002 14.3589C6.50002 14.3589 6.50002 14.3589 6.50002 14.3589C6.50002 14.3589 6.50002 14.3589 6.50002 14.3589C6.50002 14.3589 6.50002 14.3589 6.50002 14.3589C6.50002 14.3589 6.50002 14.3589 6.50002 14.3589C6.50002 14.3589 6.50002 14.3589 6.50002 14.3589C6.50002 14.2866 6.50002 14.5997 6.50002 14.1421C6.50002 14.1421 6.50002 14.1421 6.50002 14.1421C6.50002 14.1421 6.50002 14.1421 6.50002 14.1421C6.50002 14.1421 6.50002 14.1421 6.50002 14.1421C6.50002 14.1421 6.50002 14.1421 6.50002 14.1421C6.50002 14.1421 6.50002 14.1421 6.50002 14.1421C6.50002 14.1421 6.50002 14.1421 6.50002 14.1421C6.50002 14.1422 6.50002 14.1422 6.50002 14.1422C6.50002 14.1422 6.50001 14.1423 6.50001 14.1423C6.49999 14.1425 6.49994 14.1427 6.49986 14.143C6.49962 14.1438 6.49846 14.1448 6.49767 14.146C6.49691 14.1506 6.49597 14.1576 6.49484 14.1669C6.49258 14.1855 6.48956 14.2133 6.48575 14.2505C6.48956 14.2876 6.49258 14.3155 6.49484 14.3341C6.49597 14.3434 6.49691 14.3503 6.49767 14.355C6.49846 14.3561 6.49962 14.3572 6.49986 14.358C6.49994 14.3582 6.49999 14.3584 6.50001 14.3586C6.50001 14.3587 6.50002 14.3587 6.50002 14.3588C6.50002 14.3588 6.50002 14.3588 6.50002 14.3588C6.50002 14.3588 6.50002 14.3588 6.50002 14.3588C6.50002 14.3588 6.50002 14.3588 6.50002 14.3588C6.50002 14.3588 6.50002 14.3588 6.50002 14.3589C6.50002 14.3589 6.50002 14.3589 6.50002 14.3589C6.50002 14.3589 6.50002 14.3589 6.50002 14.3589C6.50002 14.3589 6.50002 14.3589 6.50002 14.3589C6.50002 13.9013 6.50002 14.2144 6.50002 14.1421C6.50002 14.1421 6.50002 14.1421 6.50002 14.1421C6.50002 14.1421 6.50002 14.1421 6.50002 14.1421C6.50002 14.1421 6.50002 14.1421 6.50002 14.1421C6.50002 14.1421 6.50002 14.1421 6.50002 14.1421C6.50002 14.1421 6.50002 14.1421 6.50002 14.1421C6.50002 14.1421 6.50002 14.1421 6.50002 14.1421C6.50002 14.1421 6.50002 14.1421 6.50002 14.1421C6.50002 14.1421 6.50002 14.1421 6.50002 14.1421C6.50002 14.1421 6.50002 14.1421 6.50002 14.1421C6.50002 14.1421 6.50002 14.1421 6.50002 14.1421C6.50002 14.1421 6.50002 14.1421 6.50002 14.1421C6.50002 14.1421 6.50002 14.1421 6.50002 14.142C6.50001 14.1419 6.5 14.1418 6.49998 14.1418C6.49994 14.1414 6.49958 14.1411 6.49951 14.1408C6.49924 14.1396 6.49886 14.139 6.49838 14.139C6.48705 14.139 6.47527 14.139 6.46562 14.139C6.45684 14.139 6.44717 14.139 6.43922 14.1391C5.98789 14.14 5.53854 14.1651 5.08877 14.2142C5.06206 14.2169 5.03977 14.2197 5.01416 14.2226Z" fill="#D9CCBA"/>
</g>
<path d="M17.0753 8.65305V7.15158C16.8082 6.75114 15.253 7.61756 15.1901 7.79013C15.1273 7.96271 15.1273 9.03273 15.1524 9.15353C15.1776 9.27434 17.0753 8.80837 17.0753 8.65305Z" fill="#EBDFCE"/>
<g filter="url(#filter4_d_7758_854)">
<path d="M17.439 9.97096V8.07437C17.0718 7.56854 14.9333 8.66297 14.8469 8.88096C14.7605 9.09895 14.7605 10.4506 14.795 10.6032C14.8296 10.7558 17.439 10.1672 17.439 9.97096Z" fill="#EBDFCE"/>
</g>
<g filter="url(#filter5_d_7758_854)">
<path d="M18.0448 11.6223V9.64665C17.4773 9.11974 14.1723 10.2598 14.0388 10.4868C13.9053 10.7139 13.9052 12.1218 13.9587 12.2808C14.0121 12.4398 18.0448 11.8266 18.0448 11.6223Z" fill="#EBDFCE"/>
</g>
<g filter="url(#filter6_d_7758_854)">
<path d="M18.7626 12.9806C18.8462 13.1187 18.7626 11.2885 18.7626 11.2885C17.9949 10.8372 13.5242 11.8136 13.3435 12.0081C13.1629 12.2026 13.2014 13.6815 13.2736 13.8176C13.3459 13.9538 18.679 12.8424 18.7626 12.9806Z" fill="#EBDFCE"/>
</g>
<g filter="url(#filter7_d_7758_854)">
<path d="M12.5562 13.9545C12.7935 13.7272 19.8437 12.403 19.6743 13.1127C19.6743 13.1127 19.765 15.4798 19.5903 15.6263C19.5324 15.6738 18.7449 15.7308 17.7114 15.7787L16.4653 13.7836C16.2813 13.4891 15.8467 13.5089 15.6899 13.8187L14.6528 15.8666C13.4449 15.8771 12.4751 15.8493 12.4136 15.7504C12.2533 15.4816 12.3189 14.1818 12.5562 13.9545Z" fill="#EBDFCE"/>
</g>
</g>
<defs>
<filter id="filter0_f_7758_854" x="7.70642" y="13.2308" width="1.73511" height="0.51587" filterUnits="userSpaceOnUse" color-interpolation-filters="sRGB">
<feFlood flood-opacity="0" result="BackgroundImageFix"/>
<feBlend mode="normal" in="SourceGraphic" in2="BackgroundImageFix" result="shape"/>
<feGaussianBlur stdDeviation="0.0557254" result="effect1_foregroundBlur_7758_854"/>
</filter>
<filter id="filter1_f_7758_854" x="8.58826" y="11.2389" width="1.73511" height="0.51587" filterUnits="userSpaceOnUse" color-interpolation-filters="sRGB">
<feFlood flood-opacity="0" result="BackgroundImageFix"/>
<feBlend mode="normal" in="SourceGraphic" in2="BackgroundImageFix" result="shape"/>
<feGaussianBlur stdDeviation="0.0557254" result="effect1_foregroundBlur_7758_854"/>
</filter>
<filter id="filter2_f_7758_854" x="8.12488" y="10.2429" width="0.950929" height="0.51587" filterUnits="userSpaceOnUse" color-interpolation-filters="sRGB">
<feFlood flood-opacity="0" result="BackgroundImageFix"/>
<feBlend mode="normal" in="SourceGraphic" in2="BackgroundImageFix" result="shape"/>
<feGaussianBlur stdDeviation="0.0557254" result="effect1_foregroundBlur_7758_854"/>
</filter>
<filter id="filter3_f_7758_854" x="4.87634" y="13.9926" width="1.73511" height="0.51587" filterUnits="userSpaceOnUse" color-interpolation-filters="sRGB">
<feFlood flood-opacity="0" result="BackgroundImageFix"/>
<feBlend mode="normal" in="SourceGraphic" in2="BackgroundImageFix" result="shape"/>
<feGaussianBlur stdDeviation="0.0557254" result="effect1_foregroundBlur_7758_854"/>
</filter>
<filter id="filter4_d_7758_854" x="14.1047" y="7.49646" width="4.00294" height="4.02332" filterUnits="userSpaceOnUse" color-interpolation-filters="sRGB">
<feFlood flood-opacity="0" result="BackgroundImageFix"/>
<feColorMatrix in="SourceAlpha" type="matrix" values="0 0 0 0 0 0 0 0 0 0 0 0 0 0 0 0 0 0 127 0" result="hardAlpha"/>
<feOffset dy="0.222902"/>
<feGaussianBlur stdDeviation="0.334353"/>
<feComposite in2="hardAlpha" operator="out"/>
<feColorMatrix type="matrix" values="0 0 0 0 0 0 0 0 0 0 0 0 0 0 0 0 0 0 0.16 0"/>
<feBlend mode="normal" in2="BackgroundImageFix" result="effect1_dropShadow_7758_854"/>
<feBlend mode="normal" in="SourceGraphic" in2="effect1_dropShadow_7758_854" result="shape"/>
</filter>
<filter id="filter5_d_7758_854" x="13.2566" y="9.06323" width="5.45704" height="4.13514" filterUnits="userSpaceOnUse" color-interpolation-filters="sRGB">
<feFlood flood-opacity="0" result="BackgroundImageFix"/>
<feColorMatrix in="SourceAlpha" type="matrix" values="0 0 0 0 0 0 0 0 0 0 0 0 0 0 0 0 0 0 127 0" result="hardAlpha"/>
<feOffset dy="0.222902"/>
<feGaussianBlur stdDeviation="0.334353"/>
<feComposite in2="hardAlpha" operator="out"/>
<feColorMatrix type="matrix" values="0 0 0 0 0 0 0 0 0 0 0 0 0 0 0 0 0 0 0.16 0"/>
<feBlend mode="normal" in2="BackgroundImageFix" result="effect1_dropShadow_7758_854"/>
<feBlend mode="normal" in="SourceGraphic" in2="effect1_dropShadow_7758_854" result="shape"/>
</filter>
<filter id="filter6_d_7758_854" x="12.5447" y="10.7249" width="6.92384" height="3.99598" filterUnits="userSpaceOnUse" color-interpolation-filters="sRGB">
<feFlood flood-opacity="0" result="BackgroundImageFix"/>
<feColorMatrix in="SourceAlpha" type="matrix" values="0 0 0 0 0 0 0 0 0 0 0 0 0 0 0 0 0 0 127 0" result="hardAlpha"/>
<feOffset dy="0.222902"/>
<feGaussianBlur stdDeviation="0.334353"/>
<feComposite in2="hardAlpha" operator="out"/>
<feColorMatrix type="matrix" values="0 0 0 0 0 0 0 0 0 0 0 0 0 0 0 0 0 0 0.16 0"/>
<feBlend mode="normal" in2="BackgroundImageFix" result="effect1_dropShadow_7758_854"/>
<feBlend mode="normal" in="SourceGraphic" in2="effect1_dropShadow_7758_854" result="shape"/>
</filter>
<filter id="filter7_d_7758_854" x="11.657" y="12.4598" width="8.70948" height="4.30042" filterUnits="userSpaceOnUse" color-interpolation-filters="sRGB">
<feFlood flood-opacity="0" result="BackgroundImageFix"/>
<feColorMatrix in="SourceAlpha" type="matrix" values="0 0 0 0 0 0 0 0 0 0 0 0 0 0 0 0 0 0 127 0" result="hardAlpha"/>
<feOffset dy="0.222902"/>
<feGaussianBlur stdDeviation="0.334353"/>
<feComposite in2="hardAlpha" operator="out"/>
<feColorMatrix type="matrix" values="0 0 0 0 0 0 0 0 0 0 0 0 0 0 0 0 0 0 0.16 0"/>
<feBlend mode="normal" in2="BackgroundImageFix" result="effect1_dropShadow_7758_854"/>
<feBlend mode="normal" in="SourceGraphic" in2="effect1_dropShadow_7758_854" result="shape"/>
</filter>
<clipPath id="clip0_7758_854">
<rect width="16.7176" height="9.6405" fill="white" transform="translate(3.5498 7.047)"/>
</clipPath>
</defs>
</svg>
